C:\OpenCap\opencap-processing\Data\f695a51c-2aed-4feb-b28d-2290ed51e9ec\OpenSimData\Dynamics\Javelin25_1\GRF_resultant_Javelin25_1_0.mot
version=1
nRows=29
nColumns=19
inDegrees=yes
endheader 
time	ground_force_right_vx	ground_force_right_vy	ground_force_right_vz	ground_force_right_px	ground_force_right_py	ground_force_right_pz	ground_torque_right_x	ground_torque_right_y	ground_torque_right_z	ground_force_left_vx	ground_force_left_vy	ground_force_left_vz	ground_force_left_px	ground_force_left_py	ground_force_left_pz	ground_torque_left_x	ground_torque_left_y	ground_torque_left_z	
          5.38000000	         -9.97862467	          6.60570913	         -1.12510497	         -2.07924799	          0.00000000	          0.26697760	          0.00000000	          0.00000000	          0.00000000	       -160.68054768	       1519.30434287	        117.14065928	         -1.73331690	          0.00000000	         -0.17123666	          0.00000000	        -14.86101043	          0.00000000	
          5.39000000	         -3.00825713	          1.96451833	         -0.31528109	         -2.06524524	          0.00000000	          0.26728191	          0.00000000	          0.00000000	          0.00000000	       -132.07813600	       1529.36994046	        150.80802658	         -1.73639504	          0.00000000	         -0.17064394	          0.00000000	        -17.92548570	          0.00000000	
          5.40000000	          0.00293306	         -0.00187078	         -0.00007509	          0.00000000	          0.00000000	          0.00000000	          0.00000000	          0.00062822	          0.00000000	        -70.89312146	       1379.01699888	        107.95922601	         -1.72212087	          0.00000000	         -0.17412475	          0.00000000	        -12.75765924	          0.00000000	
          5.41000000	          0.00000006	         -0.00000004	         -0.00000001	          0.00000000	          0.00000000	          0.00000000	          0.00000000	         -0.00000001	          0.00000000	       -113.65259696	        871.50889478	        126.72931414	         -1.65063596	          0.00000000	         -0.18655336	          0.00000000	          3.35453292	          0.00000000	
          5.42000000	          0.00000001	         -0.00000001	         -0.00000000	          0.00000000	          0.00000000	          0.00000000	          0.00000000	         -0.00000000	          0.00000000	       -253.95985663	        573.11276030	        186.35808824	         -1.63791858	          0.00000000	         -0.18977162	          0.00000000	          1.04026471	          0.00000000	
          5.43000000	          0.00000000	         -0.00000000	         -0.00000000	          0.00000000	          0.00000000	          0.00000000	          0.00000000	         -0.00000000	          0.00000000	         -3.42134887	         25.95173885	        -32.62494455	         -1.59772383	          0.00000000	         -0.22133692	          0.00000000	          0.00003056	          0.00000000	
          5.44000000	          0.00000000	         -0.00000000	         -0.00000000	          0.00000000	          0.00000000	          0.00000000	          0.00000000	         -0.00000000	          0.00000000	          0.00000000	         -0.00000000	          0.00000000	          0.00000000	          0.00000000	          0.00000000	          0.00000000	          0.00000000	          0.00000000	
          5.45000000	          0.00000000	         -0.00000000	         -0.00000000	          0.00000000	          0.00000000	          0.00000000	          0.00000000	         -0.00000000	          0.00000000	          0.00000000	         -0.00000000	          0.00000000	          0.00000000	          0.00000000	          0.00000000	          0.00000000	          0.00000000	          0.00000000	
          5.46000000	          0.00000000	         -0.00000000	         -0.00000000	          0.00000000	          0.00000000	          0.00000000	          0.00000000	         -0.00000000	          0.00000000	          0.00000000	         -0.00000000	          0.00000000	          0.00000000	          0.00000000	          0.00000000	          0.00000000	          0.00000000	          0.00000000	
          5.47000000	          0.00000000	         -0.00000000	         -0.00000000	          0.00000000	          0.00000000	          0.00000000	          0.00000000	         -0.00000000	          0.00000000	          0.00000000	         -0.00000000	          0.00000000	          0.00000000	          0.00000000	          0.00000000	          0.00000000	          0.00000000	          0.00000000	
          5.48000000	          0.00000000	         -0.00000000	         -0.00000000	          0.00000000	          0.00000000	          0.00000000	          0.00000000	         -0.00000000	          0.00000000	          0.00000000	         -0.00000000	          0.00000000	          0.00000000	          0.00000000	          0.00000000	          0.00000000	          0.00000000	          0.00000000	
          5.49000000	          0.00000000	         -0.00000000	         -0.00000000	          0.00000000	          0.00000000	          0.00000000	          0.00000000	         -0.00000000	          0.00000000	          0.00000000	         -0.00000000	          0.00000000	          0.00000000	          0.00000000	          0.00000000	          0.00000000	          0.00000000	          0.00000000	
          5.50000000	          0.00000000	         -0.00000000	         -0.00000000	          0.00000000	          0.00000000	          0.00000000	          0.00000000	         -0.00000000	          0.00000000	          0.00000000	         -0.00000000	          0.00000000	          0.00000000	          0.00000000	          0.00000000	          0.00000000	          0.00000000	          0.00000000	
          5.51000000	          0.00000000	         -0.00000000	         -0.00000000	          0.00000000	          0.00000000	          0.00000000	          0.00000000	         -0.00000000	          0.00000000	          0.00000000	         -0.00000000	          0.00000000	          0.00000000	          0.00000000	          0.00000000	          0.00000000	          0.00000000	          0.00000000	
          5.52000000	         -0.00000000	         -0.00000000	         -0.00000000	          0.00000000	          0.00000000	          0.00000000	          0.00000000	          0.00000000	          0.00000000	         -0.00000000	         -0.00000000	          0.00000000	          0.00000000	          0.00000000	          0.00000000	          0.00000000	          0.00000000	          0.00000000	
          5.53000000	         -0.00000000	         -0.00000000	         -0.00000000	          0.00000000	          0.00000000	          0.00000000	          0.00000000	          0.00000000	          0.00000000	         -0.00000000	         -0.00000000	         -0.00000000	          0.00000000	          0.00000000	          0.00000000	          0.00000000	          0.00000000	          0.00000000	
          5.54000000	         -0.00000000	         -0.00000000	         -0.00000000	          0.00000000	          0.00000000	          0.00000000	          0.00000000	          0.00000000	          0.00000000	         -0.00000000	         -0.00000000	         -0.00000000	          0.00000000	          0.00000000	          0.00000000	          0.00000000	          0.00000000	          0.00000000	
          5.55000000	         -0.00000000	         -0.00000000	          0.00000000	          0.00000000	          0.00000000	          0.00000000	          0.00000000	          0.00000000	          0.00000000	         -0.00000000	          0.00000000	         -0.00000000	          0.00000000	          0.00000000	          0.00000000	          0.00000000	          0.00000000	          0.00000000	
          5.56000000	         -0.00000000	         -0.00000000	          0.00000000	          0.00000000	          0.00000000	          0.00000000	          0.00000000	          0.00000000	          0.00000000	         -0.00000000	          0.00000000	         -0.00000000	          0.00000000	          0.00000000	          0.00000000	          0.00000000	          0.00000000	          0.00000000	
          5.57000000	         -0.00000000	         -0.00000000	          0.00000000	          0.00000000	          0.00000000	          0.00000000	          0.00000000	          0.00000000	          0.00000000	         -0.00000000	          0.00000000	         -0.00000000	          0.00000000	          0.00000000	          0.00000000	          0.00000000	          0.00000000	          0.00000000	
          5.58000000	         -0.00000000	         -0.00000000	          0.00000000	          0.00000000	          0.00000000	          0.00000000	          0.00000000	          0.00000000	          0.00000000	          0.00000000	          0.00000000	          0.00000000	         -1.63815932	          0.00000000	         -0.16202442	          0.00000000	          0.00000000	          0.00000000	
          5.59000000	         -0.00000000	         -0.00000000	          0.00000000	          0.00000000	          0.00000000	          0.00000000	          0.00000000	          0.00000000	          0.00000000	          0.00000000	          0.00000000	          0.00000000	         -1.64493491	          0.00000000	         -0.16385144	          0.00000000	          0.00000000	          0.00000000	
          5.60000000	         -0.00000000	         -0.00000000	          0.00000000	          0.00000000	          0.00000000	          0.00000000	          0.00000000	          0.00000000	          0.00000000	          0.00000000	          0.00000000	          0.00000000	         -1.64584525	          0.00000000	         -0.16518574	          0.00000000	          0.00000000	          0.00000000	
          5.61000000	         -0.00000000	          0.00000000	          0.00000000	          0.00000000	          0.00000000	          0.00000000	          0.00000000	          0.00000000	          0.00000000	          0.00000083	          0.00000063	          0.00000008	         -1.64767531	          0.00000000	         -0.16439385	          0.00000000	          0.00000000	          0.00000000	
          5.62000000	          0.00000000	          0.00000000	          0.00000000	         -1.86885757	          0.00000000	          0.18301144	          0.00000000	          0.00000000	          0.00000000	          0.00147184	          0.00108284	          0.00010220	         -1.64829937	          0.00000000	         -0.16401911	          0.00000000	          0.00000000	          0.00000000	
          5.63000000	          0.00000000	          0.00000000	          0.00000000	         -1.87974736	          0.00000000	          0.18266092	          0.00000000	          0.00000000	          0.00000000	          3.03025783	          2.19300283	          0.22271451	         -1.64791742	          0.00000000	         -0.16424075	          0.00000000	          0.00000258	          0.00000000	
          5.64000000	          0.00000001	          0.00000001	          0.00000001	         -1.87530839	          0.00000000	          0.18048849	          0.00000000	          0.00000000	          0.00000000	        225.11899287	        188.08459532	         48.92181813	         -1.64802545	          0.00000000	         -0.16390972	          0.00000000	         -0.00026881	          0.00000000	
          5.65000000	          0.00000067	          0.00000255	          0.00000207	         -1.86695419	          0.00000000	          0.17976370	          0.00000000	          0.00000000	          0.00000000	       -277.39946607	        757.67469182	        120.03106119	         -1.66054929	          0.00000000	         -0.16281455	          0.00000000	          1.06884483	          0.00000000	
          5.66000000	         -0.00018829	          0.00066014	          0.00060027	         -1.85945475	          0.00000000	          0.18050963	          0.00000000	         -0.00000001	          0.00000000	       -267.32020060	       1109.06891066	        167.26996119	         -1.67716767	          0.00000000	         -0.15832977	          0.00000000	         12.96789872	          0.00000000	
